PathFileType	3	(X/Y/Z)	RCH0000002 BBF 13.c3d
DataRate	CameraRate	NumFrames	NumMarkers	Units	OrigDataRate	OrigDataStartFrame	OrigNumFrames
100.0	100.0	8	23	mm	100.0	85	457
Frame#	Time	T2			T10			MAN			LASI			RASI			LPSI			RPSI			LPAT			LKNE			LANK			LMED			LHEE			LTOE			RPAT			RKNE			RANK			RMED			RHEE			RTOE			RTHI			LTHI			RTIB			LTIB			
		X1	Y1	Z1	X2	Y2	Z2	X3	Y3	Z3	X4	Y4	Z4	X5	Y5	Z5	X6	Y6	Z6	X7	Y7	Z7	X8	Y8	Z8	X9	Y9	Z9	X10	Y10	Z10	X11	Y11	Z11	X12	Y12	Z12	X13	Y13	Z13	X14	Y14	Z14	X15	Y15	Z15	X16	Y16	Z16	X17	Y17	Z17	X18	Y18	Z18	X19	Y19	Z19	X20	Y20	Z20	X21	Y21	Z21	X22	Y22	Z22	X23	Y23	Z23	

85	0.840	-1892.96603	-86.06986	993.59008	-1906.71416	-87.38221	810.34086	-1765.48616	-61.86026	956.06287	-1853.07482	-2.53126	648.49307	-1820.68818	-173.56299	666.96562	-1944.65292	-64.98080	719.35722	-1931.25663	-133.93081	728.66660	-1809.10243	-30.68271	389.00805	-1870.84846	13.67359	352.33277	-2029.50188	-0.46785	136.19180	-2001.32993	-66.90371	139.67249	-2038.92961	-49.52416	173.53508	-1980.22315	-21.79513	107.36435	-1849.40203	-116.32572	387.95221	-1882.07192	-180.12602	354.53523	-1938.82769	-192.50203	85.47376	-1967.18808	-129.70212	99.83239	-1990.12157	-178.05141	119.79934	-1907.66331	-144.24160	76.42710	-1841.06305	-247.24161	460.19157	-1897.16579	80.94709	475.76668	-1893.24160	-250.00891	239.82814	-1951.12230	67.78666	268.96134	
86	0.850	-1883.14602	-84.47802	995.84438	-1897.58227	-86.37741	812.41280	-1755.84453	-60.43055	957.87609	-1841.28045	-2.56078	650.48333	-1811.96659	-174.15557	669.23116	-1934.47991	-63.30969	720.62351	-1922.17742	-132.40562	730.11045	-1789.83626	-28.67427	394.69014	-1850.30804	15.74642	356.23632	-2000.92048	2.40999	134.26437	-1972.59415	-63.97113	138.06290	-2011.73378	-47.08245	170.66908	-1950.28671	-18.31977	107.43279	-1846.11096	-118.29833	388.52969	-1879.86003	-181.79027	355.91557	-1937.96965	-192.19142	86.76347	-1965.53263	-129.16982	101.52756	-1988.93861	-177.23465	121.54949	-1906.50674	-144.08818	77.00299	-1836.95226	-248.56899	461.02534	-1880.37061	82.75964	478.93420	-1892.66561	-251.18645	240.74085	-1927.90190	70.14738	270.50365	
87	0.860	-1873.34833	-82.99986	997.66987	-1888.53587	-85.30354	813.99275	-1746.24267	-59.07213	959.15318	-1829.46023	-2.46595	652.04276	-1803.19830	-174.57403	671.06867	-1924.37058	-61.52103	721.23975	-1913.13494	-130.73992	730.97111	-1770.58403	-27.04237	400.05914	-1829.46708	17.65645	359.82211	-1971.53918	5.58510	132.10621	-1943.51956	-60.84449	136.41713	-1984.01261	-44.10855	167.64615	-1919.78583	-14.95303	107.35901	-1842.43261	-119.78601	388.85174	-1877.09349	-183.01509	357.03686	-1936.95408	-191.90290	87.98064	-1963.84493	-128.70216	103.12617	-1987.56729	-176.51316	123.26307	-1905.28951	-143.92161	77.52210	-1832.35807	-249.42559	461.60550	-1863.23341	84.48660	481.63998	-1891.47329	-252.03072	241.52668	-1903.77658	72.64402	271.58099	
88	0.870	-1863.55429	-81.57846	999.02981	-1879.54223	-84.10721	815.05784	-1736.65048	-57.76515	959.86902	-1817.59326	-2.27256	653.12248	-1794.37636	-174.83466	672.48197	-1914.29119	-59.60304	721.20177	-1904.10219	-128.92084	731.26371	-1751.41542	-25.85207	405.03734	-1808.39707	19.35853	363.04452	-1941.48972	9.06672	129.79933	-1914.21747	-57.51973	134.74581	-1955.86509	-40.62117	164.50449	-1888.86043	-11.66280	107.17416	-1838.41315	-120.86415	388.91125	-1873.83940	-183.88682	357.90320	-1935.82191	-191.65062	89.10223	-1962.16111	-128.31389	104.61137	-1986.05234	-175.91057	124.91325	-1904.04521	-143.75388	77.97831	-1827.32673	-249.89053	461.93582	-1845.78777	86.06993	483.86407	-1889.73159	-252.60441	242.16153	-1878.83854	75.24893	272.25605	
89	0.880	-1853.74573	-80.15085	999.90268	-1870.56249	-82.74617	815.60159	-1727.03845	-56.48297	960.01998	-1805.65292	-2.01310	653.69474	-1785.49071	-174.96026	673.48505	-1904.19569	-57.55340	720.52922	-1895.04348	-126.94535	731.01738	-1732.41877	-25.13988	409.55346	-1787.21069	20.81628	365.86935	-1910.92913	12.83019	127.40273	-1884.79166	-54.01658	133.03107	-1927.40101	-36.68635	161.25421	-1857.65865	-8.42318	106.89145	-1834.11192	-121.61938	388.71375	-1870.18680	-184.49681	358.53248	-1934.62588	-191.43676	90.11683	-1960.51391	-128.00261	105.97558	-1984.44919	-175.42511	126.48324	-1902.80962	-143.59115	78.37018	-1821.92812	-250.05590	462.02835	-1828.09734	87.45903	485.60663	-1887.55014	-252.97382	242.63528	-1853.25045	77.91442	272.59357	
90	0.890	-1843.90541	-78.65311	1000.28060	-1861.55155	-81.19133	815.63101	-1717.37836	-55.19441	959.62262	-1793.60760	-1.72342	653.75086	-1776.52638	-174.97769	674.09890	-1894.02745	-55.37820	719.26164	-1885.91461	-124.81943	730.27177	-1713.69394	-24.91354	413.53736	-1766.05288	22.00405	368.26549	-1880.04128	16.81825	124.94773	-1855.34903	-50.37855	131.23131	-1898.74669	-32.40954	157.88088	-1826.34351	-5.22201	106.50334	-1829.59034	-122.14172	388.27491	-1866.23299	-184.93282	358.95308	-1933.42381	-191.25397	91.02481	-1958.92974	-127.75236	107.22115	-1982.81665	-175.03434	127.96770	-1901.61676	-143.43530	78.70068	-1816.24332	-250.01700	461.90170	-1810.24602	88.61477	486.87897	-1885.06536	-253.20332	242.95225	-1827.23376	80.57758	272.64476	
91	0.900	-1834.01743	-77.02515	1000.16731	-1852.45849	-79.42760	815.16365	-1707.64389	-53.86626	958.71135	-1781.42241	-1.43924	653.29829	-1767.46253	-174.91544	674.34834	-1883.72250	-53.09055	717.45374	-1876.66424	-122.55689	729.07363	-1695.34345	-25.15474	416.91675	-1745.08840	22.90776	370.19809	-1849.03837	20.94611	122.43722	-1826.01245	-46.67011	129.28870	-1870.05190	-27.92375	154.35219	-1795.09973	-2.06586	105.98173	-1824.90003	-122.51700	387.61688	-1862.06856	-185.27147	359.19936	-1932.27033	-191.08931	91.83710	-1957.42552	-127.53890	108.35992	-1981.20811	-174.70251	129.37292	-1900.49437	-143.28609	78.97620	-1810.35182	-249.86350	461.57894	-1792.32707	89.51195	487.69528	-1882.42052	-253.35068	243.13002	-1801.05175	83.16723	272.43641	
92	0.910	-1824.06741	-75.21478	999.57626	-1843.22778	-77.45409	814.22484	-1697.81101	-52.46585	957.33547	-1769.06150	-1.19277	652.35762	-1758.27229	-174.80156	674.25913	-1873.21392	-50.70905	715.17085	-1867.23625	-120.17806	727.47363	-1677.46356	-25.82413	419.61657	-1724.48753	23.52469	371.62473	-1818.16228	25.10950	119.84876	-1796.93402	-42.97134	127.13839	-1841.49687	-23.37560	150.62678	-1764.13979	1.01837	105.28138	-1820.07159	-122.82010	386.76384	-1857.76305	-185.57232	359.30626	-1931.20849	-190.92834	92.57307	-1956.00507	-127.33558	109.41166	-1979.66252	-174.38866	130.71594	-1899.45945	-143.14320	79.20492	-1804.31974	-249.67217	461.08487	-1774.43308	90.13982	488.06628	-1879.74463	-253.46331	243.19658	-1774.98970	85.61134	271.96632	
